<?xml version="1.0" encoding="UTF-8" standalone="no"?>
<!DOCTYPE svg PUBLIC "-//W3C//DTD SVG 1.1//EN" "http://www.w3.org/Graphics/SVG/1.1/DTD/svg11.dtd">
<svg width="100%" height="100%" viewBox="0 0 225 225" version="1.1" xmlns="http://www.w3.org/2000/svg" xmlns:xlink="http://www.w3.org/1999/xlink" xml:space="preserve" xmlns:serif="http://www.serif.com/" style="fill-rule:evenodd;clip-rule:evenodd;stroke-linecap:round;stroke-linejoin:round;stroke-miterlimit:1.5;">
    <g transform="matrix(1.33127,0,0,1.33127,-36.4443,-36.1284)">
        <path d="M79.253,33.037C79.253,33.037 111.142,43.412 116.315,89.726C116.423,90.686 138.443,87.363 124.398,56.579C123.996,55.696 168.653,80.131 168.653,134.658C168.653,174.065 137.636,192.117 112.457,192.117C91.456,192.117 56.392,175.078 56.392,136.742C56.392,112.142 71.573,93.683 71.573,93.683C71.573,93.683 84.541,77.774 84.541,63.518C84.541,49.263 79.253,33.037 79.253,33.037Z" style="fill:rgb(255,136,0);stroke:white;stroke-width:1.5px;"/>
    </g>
    <g transform="matrix(1.38751,0,0,1.33127,-41.2445,-35.3215)">
        <g id="Layer1">
            <path d="M99.309,86.394C99.309,86.394 98.152,106.777 116.647,118.963C135.142,131.15 145.531,135.78 145.531,158.019C145.531,180.259 128.4,191.739 112.437,191.588C101.142,191.482 74.635,186.373 74.635,149.224C74.635,112.075 99.309,86.394 99.309,86.394Z" style="fill:rgb(255,201,0);"/>
        </g>
    </g>
</svg>
