<svg width="40px" height="40px" viewBox="0 0 50 50" version="1.1" xmlns="http://www.w3.org/2000/svg" xmlns:xlink="http://www.w3.org/1999/xlink" xml:space="preserve" xmlns:serif="http://www.serif.com/" style="fill-rule:evenodd;clip-rule:evenodd;stroke-linejoin:round;stroke-miterlimit:2;"><path d="M14.51,3.483c6.554,0 11.875,5.078 11.875,11.332c0,6.253 -5.321,11.331 -11.875,11.331c-6.554,0 -11.875,-5.078 -11.875,-11.331c0,-6.254 5.321,-11.332 11.875,-11.332Zm0,4.789c3.496,0 6.333,2.94 6.333,6.561c0,3.621 -2.837,6.562 -6.333,6.562c-3.495,0 -6.333,-2.941 -6.333,-6.562c0,-3.621 2.838,-6.561 6.333,-6.561Z" style="fill:#f00;"/><path d="M35.49,3.483c6.554,0 11.875,5.078 11.875,11.332c0,6.253 -5.321,11.331 -11.875,11.331c-6.554,0 -11.875,-5.078 -11.875,-11.331c0,-6.254 5.321,-11.332 11.875,-11.332Zm0,4.789c3.495,0 6.333,2.94 6.333,6.561c0,3.621 -2.838,6.562 -6.333,6.562c-3.496,0 -6.333,-2.941 -6.333,-6.562c0,-3.621 2.837,-6.561 6.333,-6.561Z" style="fill:#f00;"/><path d="M14.51,23.854c6.554,0 11.875,5.078 11.875,11.331c0,6.254 -5.321,11.332 -11.875,11.332c-6.554,0 -11.875,-5.078 -11.875,-11.332c0,-6.253 5.321,-11.331 11.875,-11.331Zm0,4.788c3.496,0 6.333,2.94 6.333,6.562c0,3.621 -2.837,6.561 -6.333,6.561c-3.495,0 -6.333,-2.94 -6.333,-6.561c0,-3.622 2.838,-6.562 6.333,-6.562Z" style="fill:#f00;"/><path d="M35.49,23.854c6.554,0 11.875,5.078 11.875,11.331c0,6.254 -5.321,11.332 -11.875,11.332c-6.554,0 -11.875,-5.078 -11.875,-11.332c0,-6.253 5.321,-11.331 11.875,-11.331Zm0,4.788c3.495,0 6.333,2.94 6.333,6.562c0,3.621 -2.838,6.561 -6.333,6.561c-3.496,0 -6.333,-2.94 -6.333,-6.561c0,-3.622 2.837,-6.562 6.333,-6.562Z" style="fill:#f00;"/></svg>