<?xml version="1.0" encoding="UTF-8" standalone="no"?>
<!DOCTYPE svg PUBLIC "-//W3C//DTD SVG 1.1//EN" "http://www.w3.org/Graphics/SVG/1.1/DTD/svg11.dtd">
<svg width="100%" height="100%" viewBox="0 0 40 40" version="1.1" xmlns="http://www.w3.org/2000/svg" xmlns:xlink="http://www.w3.org/1999/xlink" xml:space="preserve" xmlns:serif="http://www.serif.com/" style="fill-rule:evenodd;clip-rule:evenodd;stroke-linejoin:round;stroke-miterlimit:2;">
    <path d="M10.606,2.994C15.272,2.994 19.061,6.609 19.061,11.061C19.061,15.514 15.272,19.128 10.606,19.128C5.94,19.128 2.152,15.514 2.152,11.061C2.152,6.609 5.94,2.994 10.606,2.994ZM10.606,6.402C13.094,6.402 15.115,8.496 15.115,11.074C15.115,13.653 13.094,15.746 10.606,15.746C8.118,15.746 6.098,13.653 6.098,11.074C6.098,8.496 8.118,6.402 10.606,6.402Z" style="fill:rgb(255,0,0);"/>
    <path d="M10.606,20.872C15.272,20.872 19.061,24.486 19.061,28.939C19.061,33.391 15.272,37.006 10.606,37.006C5.94,37.006 2.152,33.391 2.152,28.939C2.152,24.486 5.94,20.872 10.606,20.872ZM10.606,24.281C13.094,24.281 15.115,26.374 15.115,28.952C15.115,31.53 13.094,33.624 10.606,33.624C8.118,33.624 6.098,31.53 6.098,28.952C6.098,26.374 8.118,24.281 10.606,24.281Z" style="fill:rgb(255,0,0);"/>
    <path d="M29.394,20.872C34.06,20.872 37.848,24.486 37.848,28.939C37.848,33.391 34.06,37.006 29.394,37.006C24.728,37.006 20.939,33.391 20.939,28.939C20.939,24.486 24.728,20.872 29.394,20.872ZM29.394,24.281C31.882,24.281 33.902,26.374 33.902,28.952C33.902,31.53 31.882,33.624 29.394,33.624C26.906,33.624 24.885,31.53 24.885,28.952C24.885,26.374 26.906,24.281 29.394,24.281Z" style="fill:white;"/>
</svg>
