<svg width="35px" height="35px" viewBox="0 0 50 50" version="1.1" xmlns="http://www.w3.org/2000/svg" xmlns:xlink="http://www.w3.org/1999/xlink" xml:space="preserve" xmlns:serif="http://www.serif.com/" style="fill-rule:evenodd;clip-rule:evenodd;stroke-linecap:round;stroke-linejoin:round;stroke-miterlimit:1.5;"><path d="M13.258,3.742c5.832,0 10.568,4.519 10.568,10.084c0,5.566 -4.736,10.084 -10.568,10.084c-5.833,0 -10.568,-4.518 -10.568,-10.084c0,-5.565 4.735,-10.084 10.568,-10.084Zm0,4.261c3.11,0 5.636,2.617 5.636,5.84c0,3.223 -2.526,5.839 -5.636,5.839c-3.111,0 -5.636,-2.616 -5.636,-5.839c0,-3.223 2.525,-5.84 5.636,-5.84Z" style="fill:#f00;"/><path d="M13.258,3.742c5.832,0 10.568,4.519 10.568,10.084c0,5.566 -4.736,10.084 -10.568,10.084c-5.833,0 -10.568,-4.518 -10.568,-10.084c0,-5.565 4.735,-10.084 10.568,-10.084Zm0,4.261c3.11,0 5.636,2.617 5.636,5.84c0,3.223 -2.526,5.839 -5.636,5.839c-3.111,0 -5.636,-2.616 -5.636,-5.839c0,-3.223 2.525,-5.84 5.636,-5.84Z" style="fill:#f00;"/><ellipse cx="13.258" cy="13.843" rx="6.12" ry="5.839" style="fill:#ff0200;stroke:#fff7f7;stroke-width:1px;"/><ellipse cx="13.258" cy="13.899" rx="8.596" ry="8.203" style="fill:none;stroke:#fff7f7;stroke-width:1px;"/><path d="M36.225,3.742c5.832,0 10.568,4.519 10.568,10.084c0,5.566 -4.736,10.084 -10.568,10.084c-5.833,0 -10.568,-4.518 -10.568,-10.084c0,-5.565 4.735,-10.084 10.568,-10.084Zm0,4.261c3.11,0 5.636,2.617 5.636,5.84c0,3.223 -2.526,5.839 -5.636,5.839c-3.111,0 -5.636,-2.616 -5.636,-5.839c0,-3.223 2.525,-5.84 5.636,-5.84Z" style="fill:#f00;"/><path d="M36.225,3.742c5.832,0 10.568,4.519 10.568,10.084c0,5.566 -4.736,10.084 -10.568,10.084c-5.833,0 -10.568,-4.518 -10.568,-10.084c0,-5.565 4.735,-10.084 10.568,-10.084Zm0,4.261c3.11,0 5.636,2.617 5.636,5.84c0,3.223 -2.526,5.839 -5.636,5.839c-3.111,0 -5.636,-2.616 -5.636,-5.839c0,-3.223 2.525,-5.84 5.636,-5.84Z" style="fill:#f00;"/><ellipse cx="36.225" cy="13.843" rx="6.12" ry="5.839" style="fill:#ff0200;stroke:#fff7f7;stroke-width:1px;"/><ellipse cx="36.225" cy="13.899" rx="8.596" ry="8.203" style="fill:none;stroke:#fff7f7;stroke-width:1px;"/><path d="M13.258,25.565c5.832,0 10.568,4.518 10.568,10.084c0,5.566 -4.736,10.084 -10.568,10.084c-5.833,0 -10.568,-4.518 -10.568,-10.084c0,-5.566 4.735,-10.084 10.568,-10.084Zm0,4.261c3.11,0 5.636,2.617 5.636,5.839c0,3.223 -2.526,5.84 -5.636,5.84c-3.111,0 -5.636,-2.617 -5.636,-5.84c0,-3.222 2.525,-5.839 5.636,-5.839Z" style="fill:#f00;"/><path d="M13.258,25.565c5.832,0 10.568,4.518 10.568,10.084c0,5.566 -4.736,10.084 -10.568,10.084c-5.833,0 -10.568,-4.518 -10.568,-10.084c0,-5.566 4.735,-10.084 10.568,-10.084Zm0,4.261c3.11,0 5.636,2.617 5.636,5.839c0,3.223 -2.526,5.84 -5.636,5.84c-3.111,0 -5.636,-2.617 -5.636,-5.84c0,-3.222 2.525,-5.839 5.636,-5.839Z" style="fill:#f00;"/><ellipse cx="13.258" cy="35.665" rx="6.12" ry="5.839" style="fill:#ff0200;stroke:#fff7f7;stroke-width:1px;"/><ellipse cx="13.258" cy="35.722" rx="8.596" ry="8.203" style="fill:none;stroke:#fff7f7;stroke-width:1px;"/><path d="M36.225,25.565c5.832,0 10.568,4.518 10.568,10.084c0,5.566 -4.736,10.084 -10.568,10.084c-5.833,0 -10.568,-4.518 -10.568,-10.084c0,-5.566 4.735,-10.084 10.568,-10.084Zm0,4.261c3.11,0 5.636,2.617 5.636,5.839c0,3.223 -2.526,5.84 -5.636,5.84c-3.111,0 -5.636,-2.617 -5.636,-5.84c0,-3.222 2.525,-5.839 5.636,-5.839Z" style="fill:#f00;"/><path d="M36.225,25.565c5.832,0 10.568,4.518 10.568,10.084c0,5.566 -4.736,10.084 -10.568,10.084c-5.833,0 -10.568,-4.518 -10.568,-10.084c0,-5.566 4.735,-10.084 10.568,-10.084Zm0,4.261c3.11,0 5.636,2.617 5.636,5.839c0,3.223 -2.526,5.84 -5.636,5.84c-3.111,0 -5.636,-2.617 -5.636,-5.84c0,-3.222 2.525,-5.839 5.636,-5.839Z" style="fill:#f00;"/><ellipse cx="36.225" cy="35.665" rx="6.12" ry="5.839" style="fill:#ff0200;stroke:#fff7f7;stroke-width:1px;"/><ellipse cx="36.225" cy="35.722" rx="8.596" ry="8.203" style="fill:none;stroke:#fff7f7;stroke-width:1px;"/></svg>