<?xml version="1.0" encoding="UTF-8" standalone="no"?>
<!DOCTYPE svg PUBLIC "-//W3C//DTD SVG 1.1//EN" "http://www.w3.org/Graphics/SVG/1.1/DTD/svg11.dtd">
<svg width="100%" height="100%" viewBox="0 0 50 50" version="1.1" xmlns="http://www.w3.org/2000/svg" xmlns:xlink="http://www.w3.org/1999/xlink" xml:space="preserve" xmlns:serif="http://www.serif.com/" style="fill-rule:evenodd;clip-rule:evenodd;stroke-linecap:round;stroke-linejoin:round;stroke-miterlimit:1.5;">
    <g transform="matrix(0.406498,0,0,0.406498,-149.037,-189.854)">
        <path d="M428.136,479.078C456.751,479.078 479.982,501.245 479.982,528.55C479.982,555.854 456.751,578.022 428.136,578.022C399.522,578.022 376.291,555.854 376.291,528.55C376.291,501.245 399.522,479.078 428.136,479.078ZM428.136,499.983C443.397,499.983 455.786,512.819 455.786,528.63C455.786,544.441 443.397,557.278 428.136,557.278C412.876,557.278 400.486,544.441 400.486,528.63C400.486,512.819 412.876,499.983 428.136,499.983Z" style="fill:rgb(255,0,0);"/>
    </g>
    <g transform="matrix(0.406498,0,0,0.406498,-149.037,-189.854)">
        <path d="M428.136,479.078C456.751,479.078 479.982,501.245 479.982,528.55C479.982,555.854 456.751,578.022 428.136,578.022C399.522,578.022 376.291,555.854 376.291,528.55C376.291,501.245 399.522,479.078 428.136,479.078ZM428.136,499.983C443.397,499.983 455.786,512.819 455.786,528.63C455.786,544.441 443.397,557.278 428.136,557.278C412.876,557.278 400.486,544.441 400.486,528.63C400.486,512.819 412.876,499.983 428.136,499.983Z" style="fill:rgb(255,0,0);"/>
    </g>
    <g transform="matrix(1.28219,0,0,1.28219,7.48844,7.78425)">
        <ellipse cx="13.258" cy="13.826" rx="10.568" ry="10.084" style="fill:rgb(255,2,0);stroke:rgb(255,247,247);stroke-width:1.56px;"/>
    </g>
    <g transform="matrix(1.81397,0,0,1.76261,-0.230907,1.48187)">
        <ellipse cx="13.258" cy="13.826" rx="10.568" ry="10.084" style="fill:none;stroke:white;stroke-width:1.12px;"/>
    </g>
    <g id="_-Picture-Frame-" serif:id="(Picture Frame)" transform="matrix(0.913942,0,0,0.913942,12.9148,12.3563)">
        <ellipse cx="13.258" cy="13.826" rx="10.568" ry="10.084" style="fill:white;"/>
    </g>
</svg>
