<svg width="40px" height="40px" viewBox="0 0 50 50" version="1.1" xmlns="http://www.w3.org/2000/svg" xmlns:xlink="http://www.w3.org/1999/xlink" xml:space="preserve" xmlns:serif="http://www.serif.com/" style="fill-rule:evenodd;clip-rule:evenodd;stroke-linejoin:round;stroke-miterlimit:2;"><path d="M13.258,3.742c5.832,0 10.568,4.519 10.568,10.084c0,5.566 -4.736,10.084 -10.568,10.084c-5.833,0 -10.568,-4.518 -10.568,-10.084c0,-5.565 4.735,-10.084 10.568,-10.084Zm0,4.261c3.11,0 5.636,2.617 5.636,5.84c0,3.223 -2.526,5.839 -5.636,5.839c-3.111,0 -5.636,-2.616 -5.636,-5.839c0,-3.223 2.525,-5.84 5.636,-5.84Z" style="fill:#f00;"/><path d="M36.742,3.742c5.833,0 10.568,4.519 10.568,10.084c0,5.566 -4.735,10.084 -10.568,10.084c-5.832,0 -10.568,-4.518 -10.568,-10.084c0,-5.565 4.736,-10.084 10.568,-10.084Zm0,4.261c3.111,0 5.636,2.617 5.636,5.84c0,3.223 -2.525,5.839 -5.636,5.839c-3.11,0 -5.636,-2.616 -5.636,-5.839c0,-3.223 2.526,-5.84 5.636,-5.84Z" style="fill:#f00;"/><path d="M13.258,26.09c5.832,0 10.568,4.518 10.568,10.084c0,5.565 -4.736,10.084 -10.568,10.084c-5.833,0 -10.568,-4.519 -10.568,-10.084c0,-5.566 4.735,-10.084 10.568,-10.084Zm0,4.261c3.11,0 5.636,2.616 5.636,5.839c0,3.223 -2.526,5.84 -5.636,5.84c-3.111,0 -5.636,-2.617 -5.636,-5.84c0,-3.223 2.525,-5.839 5.636,-5.839Z" style="fill:#f00;"/><path d="M36.742,26.09c5.833,0 10.568,4.518 10.568,10.084c0,5.565 -4.735,10.084 -10.568,10.084c-5.832,0 -10.568,-4.519 -10.568,-10.084c0,-5.566 4.736,-10.084 10.568,-10.084Zm0,4.261c3.111,0 5.636,2.616 5.636,5.839c0,3.223 -2.525,5.84 -5.636,5.84c-3.11,0 -5.636,-2.617 -5.636,-5.84c0,-3.223 2.526,-5.839 5.636,-5.839Z" style="fill:#f00;"/></svg>